G04*
G04 #@! TF.GenerationSoftware,Altium Limited,Altium Designer,21.6.1 (37)*
G04*
G04 Layer_Physical_Order=2*
G04 Layer_Color=16711680*
%FSLAX44Y44*%
%MOMM*%
G71*
G04*
G04 #@! TF.SameCoordinates,4932F9C6-11AC-4B27-AC6D-AAE507F42B56*
G04*
G04*
G04 #@! TF.FilePolarity,Positive*
G04*
G01*
G75*
%ADD24R,4.2000X1.3500*%
%ADD37R,1.3500X4.2000*%
%ADD70C,0.4000*%
%ADD71C,3.2000*%
%ADD72O,2.5000X3.0000*%
%ADD73R,2.0100X2.0100*%
%ADD74C,2.0100*%
%ADD75C,4.8660*%
%ADD76R,1.1680X1.1680*%
%ADD77C,1.1680*%
%ADD78R,1.1680X1.1680*%
%ADD79C,0.7000*%
G36*
X897451Y360944D02*
Y-89944D01*
X881944Y-105451D01*
X126056D01*
X106549Y-85944D01*
Y328944D01*
X149056Y371451D01*
X886944D01*
X897451Y360944D01*
D02*
G37*
%LPC*%
G36*
X181400Y263005D02*
X179432Y262746D01*
X177598Y261986D01*
X176022Y260778D01*
X174814Y259202D01*
X174054Y257368D01*
X173795Y255400D01*
X174054Y253432D01*
X174814Y251597D01*
X176022Y250022D01*
X177598Y248814D01*
X179432Y248054D01*
X181400Y247795D01*
X183368Y248054D01*
X185203Y248814D01*
X186778Y250022D01*
X187986Y251597D01*
X188746Y253432D01*
X189005Y255400D01*
X188746Y257368D01*
X187986Y259202D01*
X186778Y260778D01*
X185203Y261986D01*
X183368Y262746D01*
X181400Y263005D01*
D02*
G37*
G36*
X188940Y212140D02*
X173860D01*
Y197060D01*
X188940D01*
Y212140D01*
D02*
G37*
G36*
X383000Y219772D02*
X383000Y219772D01*
X235818D01*
X234374Y219485D01*
X233150Y218668D01*
X233150Y218668D01*
X191128Y176646D01*
X190310Y175422D01*
X190023Y173978D01*
X190023Y173978D01*
Y159359D01*
X186959Y156294D01*
X184971Y155898D01*
X183251Y154749D01*
X182102Y153029D01*
X181698Y151000D01*
X182102Y148971D01*
X183251Y147251D01*
X184971Y146102D01*
X187000Y145698D01*
X189029Y146102D01*
X190749Y147251D01*
X191898Y148971D01*
X192294Y150958D01*
X196463Y155128D01*
X197281Y156352D01*
X197568Y157796D01*
Y168431D01*
X198838Y169009D01*
X199228Y168670D01*
Y131714D01*
X198102Y130029D01*
X197698Y128000D01*
X198102Y125971D01*
X199251Y124251D01*
X200971Y123102D01*
X203000Y122698D01*
X205029Y123102D01*
X206749Y124251D01*
X207898Y125971D01*
X208302Y128000D01*
X207898Y130029D01*
X206772Y131714D01*
Y169286D01*
X207898Y170971D01*
X208302Y173000D01*
X207898Y175029D01*
X206749Y176749D01*
X205029Y177898D01*
X204700Y177964D01*
X204332Y179179D01*
X237380Y212227D01*
X381437D01*
X417228Y176437D01*
Y156714D01*
X416102Y155029D01*
X415698Y153000D01*
X416102Y150971D01*
X417251Y149251D01*
X418971Y148102D01*
X421000Y147698D01*
X423029Y148102D01*
X424749Y149251D01*
X425898Y150971D01*
X426302Y153000D01*
X425898Y155029D01*
X424772Y156714D01*
Y178000D01*
X424772Y178000D01*
X424485Y179444D01*
X423668Y180668D01*
X423667Y180668D01*
X385668Y218668D01*
X384444Y219485D01*
X383000Y219772D01*
D02*
G37*
G36*
X581000Y145921D02*
X577933Y145518D01*
X575074Y144334D01*
X572620Y142450D01*
X570736Y139996D01*
X569552Y137137D01*
X569149Y134070D01*
X569552Y131003D01*
X570736Y128144D01*
X572620Y125690D01*
X575074Y123806D01*
X577933Y122622D01*
X581000Y122219D01*
X584067Y122622D01*
X586926Y123806D01*
X589380Y125690D01*
X591264Y128144D01*
X592448Y131003D01*
X592851Y134070D01*
X592448Y137137D01*
X591264Y139996D01*
X589380Y142450D01*
X586926Y144334D01*
X584067Y145518D01*
X581000Y145921D01*
D02*
G37*
G36*
X547000D02*
X543933Y145518D01*
X541074Y144334D01*
X538620Y142450D01*
X536736Y139996D01*
X535552Y137137D01*
X535149Y134070D01*
X535552Y131003D01*
X536736Y128144D01*
X538620Y125690D01*
X541074Y123806D01*
X543933Y122622D01*
X547000Y122219D01*
X550067Y122622D01*
X552926Y123806D01*
X555380Y125690D01*
X557264Y128144D01*
X558447Y131003D01*
X558851Y134070D01*
X558447Y137137D01*
X557264Y139996D01*
X555380Y142450D01*
X552926Y144334D01*
X550067Y145518D01*
X547000Y145921D01*
D02*
G37*
G36*
X598000Y107921D02*
X594933Y107517D01*
X592074Y106334D01*
X589620Y104450D01*
X587736Y101996D01*
X586552Y99137D01*
X586448Y98347D01*
X581950D01*
X581950Y98347D01*
X580506Y98060D01*
X579282Y97242D01*
X579282Y97242D01*
X566813Y84773D01*
X541750D01*
Y107820D01*
X518250D01*
Y84773D01*
X505714D01*
X504029Y85898D01*
X502000Y86302D01*
X499971Y85898D01*
X498251Y84749D01*
X497102Y83029D01*
X496698Y81000D01*
X497102Y78971D01*
X498251Y77251D01*
X499971Y76102D01*
X502000Y75698D01*
X504029Y76102D01*
X505714Y77228D01*
X568375D01*
X568375Y77228D01*
X569819Y77515D01*
X571043Y78332D01*
X583513Y90802D01*
X587464D01*
X587736Y90144D01*
X589620Y87690D01*
X592074Y85806D01*
X594933Y84622D01*
X598000Y84219D01*
X601067Y84622D01*
X603926Y85806D01*
X606380Y87690D01*
X608264Y90144D01*
X609448Y93003D01*
X609851Y96070D01*
X609448Y99137D01*
X608264Y101996D01*
X606380Y104450D01*
X603926Y106334D01*
X601067Y107517D01*
X598000Y107921D01*
D02*
G37*
G36*
X614000Y50005D02*
X612032Y49746D01*
X610197Y48986D01*
X608622Y47778D01*
X607414Y46203D01*
X606654Y44368D01*
X606395Y42400D01*
X606654Y40432D01*
X607414Y38598D01*
X608622Y37022D01*
X610197Y35814D01*
X612032Y35054D01*
X614000Y34795D01*
X615968Y35054D01*
X617803Y35814D01*
X619378Y37022D01*
X620586Y38598D01*
X621346Y40432D01*
X621605Y42400D01*
X621346Y44368D01*
X620586Y46203D01*
X619378Y47778D01*
X617803Y48986D01*
X615968Y49746D01*
X614000Y50005D01*
D02*
G37*
G36*
X335000Y209302D02*
X332971Y208898D01*
X331251Y207749D01*
X330102Y206029D01*
X329698Y204000D01*
X330102Y201971D01*
X330228Y201783D01*
Y161714D01*
X329102Y160029D01*
X328698Y158000D01*
X329102Y155971D01*
X330228Y154286D01*
Y21563D01*
X325640Y16976D01*
X324000Y17302D01*
X321971Y16898D01*
X320251Y15749D01*
X319102Y14029D01*
X318698Y12000D01*
X319102Y9971D01*
X320251Y8251D01*
X321971Y7102D01*
X324000Y6698D01*
X326029Y7102D01*
X327749Y8251D01*
X328077Y8742D01*
X336667Y17332D01*
X336668Y17332D01*
X337485Y18556D01*
X337772Y20000D01*
Y154286D01*
X338898Y155971D01*
X339302Y158000D01*
X338898Y160029D01*
X337772Y161714D01*
Y199599D01*
X338749Y200251D01*
X339898Y201971D01*
X340302Y204000D01*
X339898Y206029D01*
X338749Y207749D01*
X337029Y208898D01*
X335000Y209302D01*
D02*
G37*
G36*
X596140Y24540D02*
X581060D01*
Y9460D01*
X596140D01*
Y24540D01*
D02*
G37*
G36*
X639400Y24605D02*
X637432Y24346D01*
X635597Y23586D01*
X634022Y22378D01*
X632814Y20803D01*
X632054Y18968D01*
X631795Y17000D01*
X632054Y15032D01*
X632814Y13197D01*
X634022Y11622D01*
X635597Y10414D01*
X637432Y9654D01*
X639400Y9395D01*
X641368Y9654D01*
X643203Y10414D01*
X644778Y11622D01*
X645986Y13197D01*
X646746Y15032D01*
X647005Y17000D01*
X646746Y18968D01*
X645986Y20803D01*
X644778Y22378D01*
X643203Y23586D01*
X641368Y24346D01*
X639400Y24605D01*
D02*
G37*
G36*
X862000Y-50714D02*
X858530Y-51056D01*
X855194Y-52068D01*
X852119Y-53712D01*
X849424Y-55924D01*
X847212Y-58619D01*
X845568Y-61694D01*
X844556Y-65030D01*
X844214Y-68500D01*
X844556Y-71970D01*
X845568Y-75306D01*
X847212Y-78381D01*
X849424Y-81076D01*
X852119Y-83288D01*
X855194Y-84932D01*
X858530Y-85944D01*
X862000Y-86286D01*
X865470Y-85944D01*
X868806Y-84932D01*
X871881Y-83288D01*
X874576Y-81076D01*
X876788Y-78381D01*
X878432Y-75306D01*
X879444Y-71970D01*
X879786Y-68500D01*
X879444Y-65030D01*
X878432Y-61694D01*
X876788Y-58619D01*
X874576Y-55924D01*
X871881Y-53712D01*
X868806Y-52068D01*
X865470Y-51056D01*
X862000Y-50714D01*
D02*
G37*
G36*
X687000Y-53177D02*
X683293Y-53665D01*
X679839Y-55096D01*
X676872Y-57372D01*
X674596Y-60339D01*
X673166Y-63793D01*
X672678Y-67500D01*
Y-72500D01*
X673166Y-76207D01*
X674596Y-79661D01*
X676872Y-82628D01*
X679839Y-84904D01*
X683293Y-86334D01*
X687000Y-86823D01*
X690707Y-86334D01*
X694161Y-84904D01*
X697128Y-82628D01*
X699404Y-79661D01*
X700835Y-76207D01*
X701322Y-72500D01*
Y-67500D01*
X700835Y-63793D01*
X699404Y-60339D01*
X697128Y-57372D01*
X694161Y-55096D01*
X690707Y-53665D01*
X687000Y-53177D01*
D02*
G37*
G36*
X652000D02*
X648293Y-53665D01*
X644839Y-55096D01*
X641872Y-57372D01*
X639596Y-60339D01*
X638166Y-63793D01*
X637677Y-67500D01*
Y-72500D01*
X638166Y-76207D01*
X639596Y-79661D01*
X641872Y-82628D01*
X644839Y-84904D01*
X648293Y-86334D01*
X652000Y-86823D01*
X655707Y-86334D01*
X659161Y-84904D01*
X662128Y-82628D01*
X664404Y-79661D01*
X665835Y-76207D01*
X666322Y-72500D01*
Y-67500D01*
X665835Y-63793D01*
X664404Y-60339D01*
X662128Y-57372D01*
X659161Y-55096D01*
X655707Y-53665D01*
X652000Y-53177D01*
D02*
G37*
G36*
X226000Y-54177D02*
X222293Y-54665D01*
X218839Y-56096D01*
X215872Y-58373D01*
X213596Y-61339D01*
X212166Y-64793D01*
X211677Y-68500D01*
Y-73500D01*
X212166Y-77207D01*
X213596Y-80661D01*
X215872Y-83628D01*
X218839Y-85904D01*
X222293Y-87334D01*
X226000Y-87823D01*
X229707Y-87334D01*
X233161Y-85904D01*
X236128Y-83628D01*
X238404Y-80661D01*
X239834Y-77207D01*
X240322Y-73500D01*
Y-68500D01*
X239834Y-64793D01*
X238404Y-61339D01*
X236128Y-58373D01*
X233161Y-56096D01*
X229707Y-54665D01*
X226000Y-54177D01*
D02*
G37*
G36*
X191000D02*
X187293Y-54665D01*
X183839Y-56096D01*
X180872Y-58373D01*
X178596Y-61339D01*
X177166Y-64793D01*
X176677Y-68500D01*
Y-73500D01*
X177166Y-77207D01*
X178596Y-80661D01*
X180872Y-83628D01*
X183839Y-85904D01*
X187293Y-87334D01*
X191000Y-87823D01*
X194707Y-87334D01*
X198161Y-85904D01*
X201128Y-83628D01*
X203404Y-80661D01*
X204834Y-77207D01*
X205322Y-73500D01*
Y-68500D01*
X204834Y-64793D01*
X203404Y-61339D01*
X201128Y-58373D01*
X198161Y-56096D01*
X194707Y-54665D01*
X191000Y-54177D01*
D02*
G37*
G36*
X137000Y-55714D02*
X133530Y-56056D01*
X130194Y-57068D01*
X127119Y-58712D01*
X124424Y-60924D01*
X122212Y-63619D01*
X120568Y-66694D01*
X119556Y-70030D01*
X119214Y-73500D01*
X119556Y-76970D01*
X120568Y-80306D01*
X122212Y-83381D01*
X124424Y-86076D01*
X127119Y-88288D01*
X130194Y-89932D01*
X133530Y-90944D01*
X137000Y-91286D01*
X140470Y-90944D01*
X143806Y-89932D01*
X146881Y-88288D01*
X149576Y-86076D01*
X151788Y-83381D01*
X153432Y-80306D01*
X154444Y-76970D01*
X154786Y-73500D01*
X154444Y-70030D01*
X153432Y-66694D01*
X151788Y-63619D01*
X149576Y-60924D01*
X146881Y-58712D01*
X143806Y-57068D01*
X140470Y-56056D01*
X137000Y-55714D01*
D02*
G37*
%LPD*%
D24*
X879000Y256500D02*
D03*
Y200000D02*
D03*
X125000Y178250D02*
D03*
Y121750D02*
D03*
D37*
X411250Y351000D02*
D03*
X354750D02*
D03*
X275250Y354000D02*
D03*
X218750D02*
D03*
D70*
X357750Y352250D02*
X412250D01*
X218750D02*
X276000D01*
X277000Y302250D02*
X339750D01*
X167000Y179250D02*
Y265000D01*
X148000Y127000D02*
Y178250D01*
X146000Y122000D02*
X166000D01*
X145000D02*
X146000D01*
X142000Y121000D02*
X148000Y127000D01*
X325000Y11000D02*
X334000Y20000D01*
X597575Y94574D02*
X599000Y96000D01*
X502000Y81000D02*
X568375D01*
X581950Y94574D01*
X597575D01*
X421000Y153000D02*
Y178000D01*
X383000Y216000D02*
X421000Y178000D01*
X235818Y216000D02*
X383000D01*
X193796Y173978D02*
X235818Y216000D01*
X193796Y157796D02*
Y173978D01*
X187000Y151000D02*
X193796Y157796D01*
X206750Y304750D02*
X219750D01*
X166000Y122000D02*
X233000Y55000D01*
X167000Y265000D02*
X206750Y304750D01*
X233000Y55000D02*
X265000D01*
X276000Y354000D02*
X277000Y353000D01*
X412000Y352000D02*
X412250Y352250D01*
X334000Y20000D02*
Y158000D01*
Y203000D02*
X335000Y204000D01*
X334000Y158000D02*
Y203000D01*
X203000Y128000D02*
Y173000D01*
D71*
X873000Y347500D02*
D03*
X862000Y-68500D02*
D03*
X137000Y-73500D02*
D03*
X148000Y335000D02*
D03*
D72*
X261000Y-71000D02*
D03*
X226000D02*
D03*
X191000D02*
D03*
X617000Y-70000D02*
D03*
X652000D02*
D03*
X687000D02*
D03*
D73*
X530000Y96070D02*
D03*
D74*
X547000Y134070D02*
D03*
X564000Y96070D02*
D03*
X581000Y134070D02*
D03*
X598000Y96070D02*
D03*
D75*
X564000Y283070D02*
D03*
D76*
X588600Y17000D02*
D03*
D77*
X639400D02*
D03*
X614000Y42400D02*
D03*
X181400Y255400D02*
D03*
X156000Y230000D02*
D03*
D78*
X181400Y204600D02*
D03*
D79*
X324000Y12000D02*
D03*
X866000Y306000D02*
D03*
X886000Y266000D02*
D03*
Y186000D02*
D03*
X866000Y146000D02*
D03*
X886000Y106000D02*
D03*
X866000Y66000D02*
D03*
X886000Y26000D02*
D03*
X866000Y-14000D02*
D03*
X886000Y-54000D02*
D03*
X866000Y-94000D02*
D03*
X846000Y346000D02*
D03*
X826000Y306000D02*
D03*
X846000Y266000D02*
D03*
Y186000D02*
D03*
X826000Y146000D02*
D03*
X846000Y106000D02*
D03*
X826000Y66000D02*
D03*
X846000Y26000D02*
D03*
X826000Y-14000D02*
D03*
X846000Y-54000D02*
D03*
X826000Y-94000D02*
D03*
X806000Y346000D02*
D03*
X786000Y306000D02*
D03*
X806000Y266000D02*
D03*
X786000Y226000D02*
D03*
X806000Y186000D02*
D03*
X786000Y146000D02*
D03*
X806000Y106000D02*
D03*
X786000Y66000D02*
D03*
X806000Y26000D02*
D03*
X786000Y-14000D02*
D03*
X806000Y-54000D02*
D03*
X766000Y346000D02*
D03*
X746000Y306000D02*
D03*
Y226000D02*
D03*
X766000Y186000D02*
D03*
X746000Y146000D02*
D03*
X766000Y106000D02*
D03*
X746000Y66000D02*
D03*
X766000Y26000D02*
D03*
X746000Y-14000D02*
D03*
X766000Y-54000D02*
D03*
X746000Y-94000D02*
D03*
X706000Y306000D02*
D03*
X726000Y266000D02*
D03*
X706000Y226000D02*
D03*
Y146000D02*
D03*
X726000Y106000D02*
D03*
X706000Y66000D02*
D03*
X726000Y26000D02*
D03*
X706000Y-14000D02*
D03*
Y-94000D02*
D03*
X686000Y346000D02*
D03*
X666000Y306000D02*
D03*
X686000Y266000D02*
D03*
X666000Y226000D02*
D03*
X686000Y186000D02*
D03*
X666000Y-14000D02*
D03*
Y-94000D02*
D03*
X646000Y346000D02*
D03*
X626000Y306000D02*
D03*
X646000Y266000D02*
D03*
X626000Y226000D02*
D03*
X646000Y186000D02*
D03*
Y106000D02*
D03*
Y26000D02*
D03*
X626000Y-14000D02*
D03*
Y-94000D02*
D03*
X606000Y346000D02*
D03*
X586000Y306000D02*
D03*
X606000Y266000D02*
D03*
X586000Y226000D02*
D03*
X606000Y186000D02*
D03*
X586000Y66000D02*
D03*
X606000Y26000D02*
D03*
X586000Y-14000D02*
D03*
X606000Y-54000D02*
D03*
X586000Y-94000D02*
D03*
X566000Y346000D02*
D03*
X546000Y306000D02*
D03*
Y226000D02*
D03*
X566000Y186000D02*
D03*
Y26000D02*
D03*
X546000Y-14000D02*
D03*
X566000Y-54000D02*
D03*
X546000Y-94000D02*
D03*
X526000Y346000D02*
D03*
X506000Y306000D02*
D03*
X526000Y266000D02*
D03*
X506000Y226000D02*
D03*
X526000Y186000D02*
D03*
X506000Y146000D02*
D03*
Y66000D02*
D03*
Y-14000D02*
D03*
X526000Y-54000D02*
D03*
X506000Y-94000D02*
D03*
X486000Y346000D02*
D03*
X466000Y306000D02*
D03*
X486000Y266000D02*
D03*
X466000Y226000D02*
D03*
X486000Y186000D02*
D03*
X466000Y146000D02*
D03*
X486000Y26000D02*
D03*
X466000Y-14000D02*
D03*
X486000Y-54000D02*
D03*
X466000Y-94000D02*
D03*
X446000Y346000D02*
D03*
X426000Y306000D02*
D03*
X446000Y266000D02*
D03*
X426000Y226000D02*
D03*
X446000Y186000D02*
D03*
X426000Y66000D02*
D03*
X446000Y26000D02*
D03*
X426000Y-14000D02*
D03*
X446000Y-54000D02*
D03*
X426000Y-94000D02*
D03*
X406000Y346000D02*
D03*
X386000Y306000D02*
D03*
X406000Y266000D02*
D03*
X386000Y226000D02*
D03*
Y146000D02*
D03*
Y66000D02*
D03*
X406000Y26000D02*
D03*
X386000Y-14000D02*
D03*
X406000Y-54000D02*
D03*
X386000Y-94000D02*
D03*
X366000Y346000D02*
D03*
X346000Y306000D02*
D03*
Y226000D02*
D03*
Y66000D02*
D03*
X366000Y26000D02*
D03*
X346000Y-14000D02*
D03*
X366000Y-54000D02*
D03*
X326000Y346000D02*
D03*
X306000Y306000D02*
D03*
X326000Y266000D02*
D03*
X306000Y226000D02*
D03*
Y66000D02*
D03*
Y-14000D02*
D03*
X326000Y-54000D02*
D03*
X306000Y-94000D02*
D03*
X286000Y346000D02*
D03*
X266000Y306000D02*
D03*
X286000Y266000D02*
D03*
X266000Y226000D02*
D03*
Y66000D02*
D03*
X286000Y26000D02*
D03*
X266000Y-14000D02*
D03*
X286000Y-54000D02*
D03*
X266000Y-94000D02*
D03*
X226000Y306000D02*
D03*
X246000Y106000D02*
D03*
Y26000D02*
D03*
X226000Y-14000D02*
D03*
X246000Y-54000D02*
D03*
X226000Y-94000D02*
D03*
X206000Y346000D02*
D03*
X186000Y306000D02*
D03*
X206000Y266000D02*
D03*
X186000Y226000D02*
D03*
X206000Y106000D02*
D03*
X186000Y66000D02*
D03*
X206000Y-54000D02*
D03*
X186000Y-94000D02*
D03*
X146000Y306000D02*
D03*
X166000Y266000D02*
D03*
X146000Y226000D02*
D03*
X166000Y186000D02*
D03*
Y106000D02*
D03*
X146000Y66000D02*
D03*
X166000Y26000D02*
D03*
X146000Y-14000D02*
D03*
X166000Y-54000D02*
D03*
X146000Y-94000D02*
D03*
X502000Y81000D02*
D03*
X421000Y153000D02*
D03*
X334000Y158000D02*
D03*
X187000Y151000D02*
D03*
X265000Y55000D02*
D03*
X146000Y122000D02*
D03*
Y178000D02*
D03*
X218750Y354750D02*
D03*
X276000Y354000D02*
D03*
X412250Y352250D02*
D03*
X355750Y351250D02*
D03*
X335000Y204000D02*
D03*
X203000Y128000D02*
D03*
Y173000D02*
D03*
M02*
