G04*
G04 #@! TF.GenerationSoftware,Altium Limited,Altium Designer,21.6.1 (37)*
G04*
G04 Layer_Color=8388736*
%FSLAX44Y44*%
%MOMM*%
G71*
G04*
G04 #@! TF.SameCoordinates,4932F9C6-11AC-4B27-AC6D-AAE507F42B56*
G04*
G04*
G04 #@! TF.FilePolarity,Negative*
G04*
G01*
G75*
G04:AMPARAMS|DCode=41|XSize=1.4mm|YSize=3.7mm|CornerRadius=0.4mm|HoleSize=0mm|Usage=FLASHONLY|Rotation=0.000|XOffset=0mm|YOffset=0mm|HoleType=Round|Shape=RoundedRectangle|*
%AMROUNDEDRECTD41*
21,1,1.4000,2.9000,0,0,0.0*
21,1,0.6000,3.7000,0,0,0.0*
1,1,0.8000,0.3000,-1.4500*
1,1,0.8000,-0.3000,-1.4500*
1,1,0.8000,-0.3000,1.4500*
1,1,0.8000,0.3000,1.4500*
%
%ADD41ROUNDEDRECTD41*%
%ADD42R,1.4000X3.7000*%
%ADD43R,1.5800X1.2500*%
G04:AMPARAMS|DCode=44|XSize=4.19mm|YSize=2.32mm|CornerRadius=0.365mm|HoleSize=0mm|Usage=FLASHONLY|Rotation=0.000|XOffset=0mm|YOffset=0mm|HoleType=Round|Shape=RoundedRectangle|*
%AMROUNDEDRECTD44*
21,1,4.1900,1.5900,0,0,0.0*
21,1,3.4600,2.3200,0,0,0.0*
1,1,0.7300,1.7300,-0.7950*
1,1,0.7300,-1.7300,-0.7950*
1,1,0.7300,-1.7300,0.7950*
1,1,0.7300,1.7300,0.7950*
%
%ADD44ROUNDEDRECTD44*%
%ADD45R,4.4000X1.5500*%
%ADD46R,3.8000X1.4700*%
%ADD47R,0.9620X3.0702*%
%ADD48R,2.7000X6.7000*%
%ADD49R,1.0000X1.2000*%
%ADD50R,1.1000X0.9000*%
%ADD51R,2.4000X2.5000*%
%ADD52R,10.6000X16.1900*%
%ADD53R,1.3500X2.0200*%
%ADD54R,0.9000X1.1000*%
%ADD55R,2.0200X1.3500*%
%ADD56R,1.2000X1.0000*%
%ADD57R,1.4700X3.8000*%
%ADD58R,1.5500X4.4000*%
G04:AMPARAMS|DCode=59|XSize=2.15mm|YSize=0.79mm|CornerRadius=0.1737mm|HoleSize=0mm|Usage=FLASHONLY|Rotation=0.000|XOffset=0mm|YOffset=0mm|HoleType=Round|Shape=RoundedRectangle|*
%AMROUNDEDRECTD59*
21,1,2.1500,0.4425,0,0,0.0*
21,1,1.8025,0.7900,0,0,0.0*
1,1,0.3475,0.9012,-0.2213*
1,1,0.3475,-0.9012,-0.2213*
1,1,0.3475,-0.9012,0.2213*
1,1,0.3475,0.9012,0.2213*
%
%ADD59ROUNDEDRECTD59*%
%ADD60R,2.0200X1.5800*%
%ADD61R,1.0000X1.0000*%
%ADD62C,3.4000*%
%ADD63O,2.7000X3.2000*%
%ADD64R,2.2100X2.2100*%
%ADD65C,2.2100*%
%ADD66C,5.0660*%
%ADD67R,1.3680X1.3680*%
%ADD68C,1.3680*%
%ADD69R,1.3680X1.3680*%
D41*
X739000Y-86000D02*
D03*
X322600D02*
D03*
D42*
X789800D02*
D03*
X764400D02*
D03*
X373400D02*
D03*
X348000D02*
D03*
D43*
X265000Y26880D02*
D03*
Y9120D02*
D03*
X242000Y60120D02*
D03*
Y77880D02*
D03*
X383000Y90120D02*
D03*
Y107880D02*
D03*
X249000Y262880D02*
D03*
Y245120D02*
D03*
D44*
X319600Y12000D02*
D03*
X404400D02*
D03*
X692600Y50000D02*
D03*
X777400D02*
D03*
D45*
X879000Y256500D02*
D03*
Y200000D02*
D03*
X125000Y178250D02*
D03*
Y121750D02*
D03*
D46*
X881000Y228250D02*
D03*
X123000Y150000D02*
D03*
D47*
X464000Y47812D02*
D03*
Y8188D02*
D03*
D48*
X726000Y197500D02*
D03*
Y322500D02*
D03*
D49*
X580500Y64000D02*
D03*
X597500D02*
D03*
X219000Y151000D02*
D03*
X202000D02*
D03*
D50*
X483000Y105500D02*
D03*
Y90500D02*
D03*
X446000Y105500D02*
D03*
Y90500D02*
D03*
X632000Y128500D02*
D03*
Y143500D02*
D03*
X465000Y90500D02*
D03*
Y105500D02*
D03*
X503000Y18500D02*
D03*
Y33500D02*
D03*
X334000Y188500D02*
D03*
Y203500D02*
D03*
Y143500D02*
D03*
Y158500D02*
D03*
X357000Y158500D02*
D03*
Y143500D02*
D03*
X188000Y15500D02*
D03*
Y30500D02*
D03*
D51*
X679500Y133000D02*
D03*
X728500D02*
D03*
X763500Y131000D02*
D03*
X812500D02*
D03*
D52*
X564000Y232000D02*
D03*
D53*
X449850Y155000D02*
D03*
X420150D02*
D03*
D54*
X552500Y49000D02*
D03*
X567500D02*
D03*
X201500Y244000D02*
D03*
X216500D02*
D03*
X218000Y128000D02*
D03*
X203000D02*
D03*
Y173000D02*
D03*
X218000D02*
D03*
X203000Y218000D02*
D03*
X218000D02*
D03*
X321500Y113000D02*
D03*
X336500D02*
D03*
X336500Y85000D02*
D03*
X321500D02*
D03*
X302500Y112000D02*
D03*
X287500D02*
D03*
X302500Y84000D02*
D03*
X287500D02*
D03*
X218000Y195500D02*
D03*
X203000D02*
D03*
D55*
X530000Y46850D02*
D03*
Y17150D02*
D03*
D56*
X652000Y144500D02*
D03*
Y127500D02*
D03*
X357000Y203500D02*
D03*
Y186500D02*
D03*
X287000Y9500D02*
D03*
Y26500D02*
D03*
X242000Y8500D02*
D03*
Y25500D02*
D03*
X401000Y107500D02*
D03*
Y90500D02*
D03*
D57*
X383000Y353000D02*
D03*
X247000Y356000D02*
D03*
D58*
X411250Y351000D02*
D03*
X354750D02*
D03*
X275250Y354000D02*
D03*
X218750D02*
D03*
D59*
X251200Y214100D02*
D03*
Y201400D02*
D03*
Y188700D02*
D03*
Y176000D02*
D03*
Y163300D02*
D03*
Y150600D02*
D03*
Y137900D02*
D03*
X300800D02*
D03*
Y150600D02*
D03*
Y163300D02*
D03*
Y176000D02*
D03*
Y188700D02*
D03*
Y201400D02*
D03*
Y214100D02*
D03*
D60*
X265000Y56310D02*
D03*
Y83690D02*
D03*
X360000Y86310D02*
D03*
Y113690D02*
D03*
D61*
X207000Y30500D02*
D03*
Y15500D02*
D03*
D62*
X873000Y347500D02*
D03*
X862000Y-68500D02*
D03*
X137000Y-73500D02*
D03*
X148000Y335000D02*
D03*
D63*
X261000Y-71000D02*
D03*
X226000D02*
D03*
X191000D02*
D03*
X617000Y-70000D02*
D03*
X652000D02*
D03*
X687000D02*
D03*
D64*
X530000Y96070D02*
D03*
D65*
X547000Y134070D02*
D03*
X564000Y96070D02*
D03*
X581000Y134070D02*
D03*
X598000Y96070D02*
D03*
D66*
X564000Y283070D02*
D03*
D67*
X588600Y17000D02*
D03*
D68*
X639400D02*
D03*
X614000Y42400D02*
D03*
X181400Y255400D02*
D03*
X156000Y230000D02*
D03*
D69*
X181400Y204600D02*
D03*
M02*
