G04*
G04 #@! TF.GenerationSoftware,Altium Limited,Altium Designer,21.6.1 (37)*
G04*
G04 Layer_Color=16711935*
%FSLAX44Y44*%
%MOMM*%
G71*
G04*
G04 #@! TF.SameCoordinates,4932F9C6-11AC-4B27-AC6D-AAE507F42B56*
G04*
G04*
G04 #@! TF.FilePolarity,Negative*
G04*
G01*
G75*
%ADD45R,4.4000X1.5500*%
%ADD58R,1.5500X4.4000*%
%ADD62C,3.4000*%
%ADD63O,2.7000X3.2000*%
%ADD64R,2.2100X2.2100*%
%ADD65C,2.2100*%
%ADD66C,5.0660*%
%ADD67R,1.3680X1.3680*%
%ADD68C,1.3680*%
%ADD69R,1.3680X1.3680*%
D45*
X879000Y256500D02*
D03*
Y200000D02*
D03*
X125000Y178250D02*
D03*
Y121750D02*
D03*
D58*
X411250Y351000D02*
D03*
X354750D02*
D03*
X275250Y354000D02*
D03*
X218750D02*
D03*
D62*
X873000Y347500D02*
D03*
X862000Y-68500D02*
D03*
X137000Y-73500D02*
D03*
X148000Y335000D02*
D03*
D63*
X261000Y-71000D02*
D03*
X226000D02*
D03*
X191000D02*
D03*
X617000Y-70000D02*
D03*
X652000D02*
D03*
X687000D02*
D03*
D64*
X530000Y96070D02*
D03*
D65*
X547000Y134070D02*
D03*
X564000Y96070D02*
D03*
X581000Y134070D02*
D03*
X598000Y96070D02*
D03*
D66*
X564000Y283070D02*
D03*
D67*
X588600Y17000D02*
D03*
D68*
X639400D02*
D03*
X614000Y42400D02*
D03*
X181400Y255400D02*
D03*
X156000Y230000D02*
D03*
D69*
X181400Y204600D02*
D03*
M02*
