G04*
G04 #@! TF.GenerationSoftware,Altium Limited,Altium Designer,21.6.1 (37)*
G04*
G04 Layer_Color=8421504*
%FSLAX44Y44*%
%MOMM*%
G71*
G04*
G04 #@! TF.SameCoordinates,4932F9C6-11AC-4B27-AC6D-AAE507F42B56*
G04*
G04*
G04 #@! TF.FilePolarity,Positive*
G04*
G01*
G75*
G04:AMPARAMS|DCode=20|XSize=1.2mm|YSize=3.5mm|CornerRadius=0.3mm|HoleSize=0mm|Usage=FLASHONLY|Rotation=0.000|XOffset=0mm|YOffset=0mm|HoleType=Round|Shape=RoundedRectangle|*
%AMROUNDEDRECTD20*
21,1,1.2000,2.9000,0,0,0.0*
21,1,0.6000,3.5000,0,0,0.0*
1,1,0.6000,0.3000,-1.4500*
1,1,0.6000,-0.3000,-1.4500*
1,1,0.6000,-0.3000,1.4500*
1,1,0.6000,0.3000,1.4500*
%
%ADD20ROUNDEDRECTD20*%
%ADD21R,1.2000X3.5000*%
%ADD22R,1.3800X1.0500*%
G04:AMPARAMS|DCode=23|XSize=3.99mm|YSize=2.12mm|CornerRadius=0.265mm|HoleSize=0mm|Usage=FLASHONLY|Rotation=0.000|XOffset=0mm|YOffset=0mm|HoleType=Round|Shape=RoundedRectangle|*
%AMROUNDEDRECTD23*
21,1,3.9900,1.5900,0,0,0.0*
21,1,3.4600,2.1200,0,0,0.0*
1,1,0.5300,1.7300,-0.7950*
1,1,0.5300,-1.7300,-0.7950*
1,1,0.5300,-1.7300,0.7950*
1,1,0.5300,1.7300,0.7950*
%
%ADD23ROUNDEDRECTD23*%
%ADD24R,4.2000X1.3500*%
%ADD25R,3.6000X1.2700*%
%ADD26R,0.7620X2.8702*%
%ADD27R,2.5000X6.5000*%
%ADD28R,0.8000X1.0000*%
%ADD29R,0.9000X0.7000*%
%ADD30R,2.2000X2.3000*%
%ADD31R,10.4000X15.9900*%
%ADD32R,1.1500X1.8200*%
%ADD33R,0.7000X0.9000*%
%ADD34R,1.8200X1.1500*%
%ADD35R,1.0000X0.8000*%
%ADD36R,1.2700X3.6000*%
%ADD37R,1.3500X4.2000*%
G04:AMPARAMS|DCode=38|XSize=1.95mm|YSize=0.59mm|CornerRadius=0.0738mm|HoleSize=0mm|Usage=FLASHONLY|Rotation=0.000|XOffset=0mm|YOffset=0mm|HoleType=Round|Shape=RoundedRectangle|*
%AMROUNDEDRECTD38*
21,1,1.9500,0.4425,0,0,0.0*
21,1,1.8025,0.5900,0,0,0.0*
1,1,0.1475,0.9012,-0.2213*
1,1,0.1475,-0.9012,-0.2213*
1,1,0.1475,-0.9012,0.2213*
1,1,0.1475,0.9012,0.2213*
%
%ADD38ROUNDEDRECTD38*%
%ADD39R,1.8200X1.3800*%
%ADD40R,0.8000X0.8000*%
D20*
X739000Y-86000D02*
D03*
X322600D02*
D03*
D21*
X789800D02*
D03*
X764400D02*
D03*
X373400D02*
D03*
X348000D02*
D03*
D22*
X265000Y26880D02*
D03*
Y9120D02*
D03*
X242000Y60120D02*
D03*
Y77880D02*
D03*
X383000Y90120D02*
D03*
Y107880D02*
D03*
X249000Y262880D02*
D03*
Y245120D02*
D03*
D23*
X319600Y12000D02*
D03*
X404400D02*
D03*
X692600Y50000D02*
D03*
X777400D02*
D03*
D24*
X879000Y256500D02*
D03*
Y200000D02*
D03*
X125000Y178250D02*
D03*
Y121750D02*
D03*
D25*
X881000Y228250D02*
D03*
X123000Y150000D02*
D03*
D26*
X464000Y47812D02*
D03*
Y8188D02*
D03*
D27*
X726000Y197500D02*
D03*
Y322500D02*
D03*
D28*
X580500Y64000D02*
D03*
X597500D02*
D03*
X219000Y151000D02*
D03*
X202000D02*
D03*
D29*
X483000Y105500D02*
D03*
Y90500D02*
D03*
X446000Y105500D02*
D03*
Y90500D02*
D03*
X632000Y128500D02*
D03*
Y143500D02*
D03*
X465000Y90500D02*
D03*
Y105500D02*
D03*
X503000Y18500D02*
D03*
Y33500D02*
D03*
X334000Y188500D02*
D03*
Y203500D02*
D03*
Y143500D02*
D03*
Y158500D02*
D03*
X357000Y158500D02*
D03*
Y143500D02*
D03*
X188000Y15500D02*
D03*
Y30500D02*
D03*
D30*
X679500Y133000D02*
D03*
X728500D02*
D03*
X763500Y131000D02*
D03*
X812500D02*
D03*
D31*
X564000Y232000D02*
D03*
D32*
X449850Y155000D02*
D03*
X420150D02*
D03*
D33*
X552500Y49000D02*
D03*
X567500D02*
D03*
X201500Y244000D02*
D03*
X216500D02*
D03*
X218000Y128000D02*
D03*
X203000D02*
D03*
Y173000D02*
D03*
X218000D02*
D03*
X203000Y218000D02*
D03*
X218000D02*
D03*
X321500Y113000D02*
D03*
X336500D02*
D03*
X336500Y85000D02*
D03*
X321500D02*
D03*
X302500Y112000D02*
D03*
X287500D02*
D03*
X302500Y84000D02*
D03*
X287500D02*
D03*
X218000Y195500D02*
D03*
X203000D02*
D03*
D34*
X530000Y46850D02*
D03*
Y17150D02*
D03*
D35*
X652000Y144500D02*
D03*
Y127500D02*
D03*
X357000Y203500D02*
D03*
Y186500D02*
D03*
X287000Y9500D02*
D03*
Y26500D02*
D03*
X242000Y8500D02*
D03*
Y25500D02*
D03*
X401000Y107500D02*
D03*
Y90500D02*
D03*
D36*
X383000Y353000D02*
D03*
X247000Y356000D02*
D03*
D37*
X411250Y351000D02*
D03*
X354750D02*
D03*
X275250Y354000D02*
D03*
X218750D02*
D03*
D38*
X251200Y214100D02*
D03*
Y201400D02*
D03*
Y188700D02*
D03*
Y176000D02*
D03*
Y163300D02*
D03*
Y150600D02*
D03*
Y137900D02*
D03*
X300800D02*
D03*
Y150600D02*
D03*
Y163300D02*
D03*
Y176000D02*
D03*
Y188700D02*
D03*
Y201400D02*
D03*
Y214100D02*
D03*
D39*
X265000Y56310D02*
D03*
Y83690D02*
D03*
X360000Y86310D02*
D03*
Y113690D02*
D03*
D40*
X207000Y30500D02*
D03*
Y15500D02*
D03*
M02*
