M48
;Layer_Color=9474304
;FILE_FORMAT=4:4
METRIC,LZ
;TYPE=PLATED
T1F00S00C0.3000
T2F00S00C0.6600
T3F00S00C1.0000
T4F00S00C1.3400
T5F00S00C3.2000
T6F00S00C3.8500
%
T01
X00146Y-00094
X00186
X00226
X00266
X00306
X00326Y-00054
X00366
X00406
X00446
X00486
X00526
X00506Y-00014
X00466
X00426
X00386
X00346
X00306
X00266
X00226
X00246Y00026
X00286
X00265Y00055
X00266Y00066
X00306
X00346
X00386
X00426
X00446Y00026
X00486
X00506Y00066
X00502Y00081
X00406Y00026
X00366
X00324Y00012
X00286Y-00054
X00246
X00206
X00166
X00146Y-00014
X00166Y00026
X00146Y00066
X00186
X00206Y00106
X00203Y00128
X00166Y00106
X00146Y00122
X00246Y00106
X00386Y-00094
X00426
X00466
X00506
X00546
X00586
X00626
X00666
X00706
X00746
X00766Y-00054
X00806
X00846
X00886
X00866Y-00014
X00826
X00786
X00746
X00706
X00666
X00626
X00586
X00546
X00566Y00026
X00606
X00646
X00726
X00766
X00806
X00846
X00886
X00866Y00066
X00826
X00786
X00746
X00706
X00726Y00106
X00766
X00806
X00846
X00886
X00866Y-00094
X00826
X00606Y-00054
X00566
X00586Y00066
X00646Y00106
Y00186
X00686
X00666Y00226
X00706
X00746
X00786
X00806Y00266
X00846
X00886
X00866Y00306
X00826
X00786
X00746
X00706
X00666
X00626
X00586
X00546
X00566Y00346
X00606
X00646
X00686
X00766
X00806
X00846
Y00186
X00886
X00866Y00146
X00826
X00786
X00746
X00706
X00766Y00186
X00806
X00726Y00266
X00686
X00646
X00606
X00586Y00226
X00626
X00606Y00186
X00566
X00546Y00226
X00506
X00466
X00426
X00386
X00346
X00335Y00204
X00334Y00158
X00386Y00146
X00421Y00153
X00466Y00146
X00506
X00526Y00186
X00486
X00446
Y00266
X00486
X00526
X00506Y00306
X00466
X00426
X00386
X00346
X00306
X00266
X00226
X00186
X00146
X00166Y00266
X00206
X00186Y00226
X00146
X00146Y00178
X00166Y00186
X00203Y00173
X00187Y00151
X00266Y00226
X00306
X00326Y00266
X00286
Y00346
X00276Y00354
X00326Y00346
X0035575Y0035125
X00366Y00346
X00406
X0041225Y0035225
X00446Y00346
X00486
X00526
X00406Y00266
X0021875Y0035475
X00206Y00346
T02
X005886Y00017
X006394
X00614Y000424
X001814Y002046
Y002554
X00156Y0023
T03
X00191Y-00071
X00226
X00261
X00617Y-0007
X00652
X00687
T04
X0053Y0009607
X00564
X00598
X00581Y0013407
X00547
T05
X00137Y-000735
X00862Y-000685
X00873Y003475
X00148Y00335
T06
X00564Y0028307
M30
